<!--?xml version="1.0" standalone="no"?-->
              <svg id="sw-js-blob-svg" viewBox="0 0 100 100" xmlns="http://www.w3.org/2000/svg" version="1.1">
                    <defs> 
                        <linearGradient id="sw-gradient" x1="0" x2="1" y1="1" y2="0">
                            <stop id="stop1" stop-color="rgba(229, 0, 0, 1)" offset="0%"></stop>
                            <stop id="stop2" stop-color="rgba(68, 68, 68, 1)" offset="100%"></stop>
                        </linearGradient>
                    </defs>
                <path fill="url(#sw-gradient)" d="M18.4,-21.9C24.3,-21,30,-16.3,34.7,-9.5C39.4,-2.7,43,6.2,40,12.2C37,18.2,27.3,21.2,19.5,22.6C11.8,24,5.9,23.8,0.4,23.3C-5.2,22.8,-10.3,22.1,-14.3,19.4C-18.3,16.8,-21,12.3,-26.2,6.2C-31.4,0.1,-39,-7.5,-39.5,-14.9C-40,-22.3,-33.3,-29.5,-25.5,-29.8C-17.8,-30.1,-8.9,-23.5,-1.3,-21.7C6.2,-19.9,12.4,-22.8,18.4,-21.9Z" width="100%" height="100%" transform="translate(50 50)" stroke-width="0" style="transition: all 0.3s ease 0s;" stroke="url(#sw-gradient)"></path>
              </svg>