<!--?xml version="1.0" standalone="no"?-->
              <svg id="sw-js-blob-svg" viewBox="0 0 100 100" xmlns="http://www.w3.org/2000/svg" version="1.1">
                    <defs> 
                        <linearGradient id="sw-gradient" x1="0" x2="1" y1="1" y2="0">
                            <stop id="stop1" stop-color="rgba(229, 0, 0, 1)" offset="0%"></stop>
                            <stop id="stop2" stop-color="rgba(68, 68, 68, 1)" offset="100%"></stop>
                        </linearGradient>
                    </defs>
                <path fill="url(#sw-gradient)" d="M16.1,-18.6C22.2,-14.1,29.3,-10.2,32.7,-3.9C36.1,2.5,35.7,11.5,31.4,17.4C27.1,23.4,18.9,26.4,10.3,30.4C1.7,34.5,-7.2,39.5,-14.2,37.6C-21.1,35.6,-26.1,26.8,-27.3,18.7C-28.6,10.6,-26.1,3.2,-24,-3.4C-21.8,-9.9,-19.9,-15.7,-16,-20.6C-12,-25.5,-6,-29.6,-0.5,-29C5,-28.4,10,-23.1,16.1,-18.6Z" width="100%" height="100%" transform="translate(50 50)" stroke-width="0" style="transition: all 0.3s ease 0s;" stroke="url(#sw-gradient)"></path>
              </svg>