<!--?xml version="1.0" standalone="no"?-->
              <svg id="sw-js-blob-svg" viewBox="0 0 100 100" xmlns="http://www.w3.org/2000/svg" version="1.1">
                    <defs> 
                        <linearGradient id="sw-gradient" x1="0" x2="1" y1="1" y2="0">
                            <stop id="stop1" stop-color="rgba(229, 0, 0, 1)" offset="0%"></stop>
                            <stop id="stop2" stop-color="rgba(68, 68, 68, 1)" offset="100%"></stop>
                        </linearGradient>
                    </defs>
                <path fill="url(#sw-gradient)" d="M17,-29.6C23.2,-25.9,30,-23.6,33.7,-18.9C37.5,-14.2,38.2,-7.1,39,0.5C39.8,8,40.7,16,37.9,22.3C35,28.5,28.3,33,21.4,31.8C14.4,30.7,7.2,23.9,0.6,22.8C-5.9,21.7,-11.9,26.2,-15.5,25.5C-19.1,24.7,-20.4,18.6,-21.6,13.5C-22.8,8.3,-23.9,4.2,-23.3,0.4C-22.7,-3.4,-20.3,-6.9,-17.6,-9.4C-14.8,-11.9,-11.8,-13.5,-8.8,-19C-5.8,-24.4,-2.9,-33.8,1.3,-36C5.4,-38.2,10.9,-33.2,17,-29.6Z" width="100%" height="100%" transform="translate(50 50)" stroke-width="0" style="transition: all 0.3s ease 0s;" stroke="url(#sw-gradient)"></path>
              </svg>