<!--?xml version="1.0" standalone="no"?-->
              <svg id="sw-js-blob-svg" viewBox="0 0 100 100" xmlns="http://www.w3.org/2000/svg" version="1.1">
                    <defs> 
                        <linearGradient id="sw-gradient" x1="0" x2="1" y1="1" y2="0">
                            <stop id="stop1" stop-color="rgba(229, 0, 0, 1)" offset="0%"></stop>
                            <stop id="stop2" stop-color="rgba(68, 68, 68, 1)" offset="100%"></stop>
                        </linearGradient>
                    </defs>
                <path fill="url(#sw-gradient)" d="M17,-28.6C19.7,-24.7,18.1,-16.1,22.2,-9.4C26.4,-2.8,36.3,1.9,37.7,6.7C39,11.5,31.7,16.3,25.4,20C19.1,23.7,13.8,26.2,8.1,28C2.5,29.8,-3.4,30.8,-7.3,28.2C-11.2,25.6,-13.1,19.3,-15.9,14.6C-18.8,9.9,-22.6,6.9,-26.3,1.9C-29.9,-3.1,-33.4,-10,-31,-13.7C-28.6,-17.5,-20.3,-18.1,-14.2,-20.5C-8,-22.8,-4,-26.8,1.6,-29.2C7.1,-31.7,14.3,-32.5,17,-28.6Z" width="100%" height="100%" transform="translate(50 50)" stroke-width="0" style="transition: all 0.3s ease 0s;" stroke="url(#sw-gradient)"></path>
              </svg>