<!--?xml version="1.0" standalone="no"?-->
              <svg id="sw-js-blob-svg" viewBox="0 0 100 100" xmlns="http://www.w3.org/2000/svg" version="1.1">
                    <defs> 
                        <linearGradient id="sw-gradient" x1="0" x2="1" y1="1" y2="0">
                            <stop id="stop1" stop-color="rgba(229, 0, 0, 1)" offset="0%"></stop>
                            <stop id="stop2" stop-color="rgba(68, 68, 68, 1)" offset="100%"></stop>
                        </linearGradient>
                    </defs>
                <path fill="url(#sw-gradient)" d="M18.5,-27.1C22.5,-22.6,23.2,-15.2,23.5,-8.9C23.8,-2.6,23.7,2.5,23.7,9.3C23.7,16,23.7,24.3,19.7,27.4C15.8,30.6,7.9,28.6,-0.5,29.3C-8.9,30,-17.8,33.3,-23.2,30.6C-28.6,28,-30.7,19.3,-29.9,12C-29.1,4.7,-25.6,-1.2,-24.4,-8.9C-23.3,-16.6,-24.5,-26,-20.8,-30.7C-17.2,-35.3,-8.6,-35.3,-0.7,-34.4C7.3,-33.4,14.5,-31.7,18.5,-27.1Z" width="100%" height="100%" transform="translate(50 50)" stroke-width="0" style="transition: all 0.3s ease 0s;" stroke="url(#sw-gradient)"></path>
              </svg>